<svg xmlns="http://www.w3.org/2000/svg" viewBox="0 0 64 64" width="256" height="256"><path d="M61 36H3a1 1 0 0 0-1 1v24a1 1 0 0 0 1 1h58a1 1 0 0 0 1-1V37a1 1 0 0 0-1-1zm-42 2v7H4v-7h15zM4 47h15v13H4V47zm17 13V38h22v22H21zm39 0H45V38h15v22zM3 16h16a1 1 0 0 0 1-1V3a1 1 0 0 0-1-1H3a1 1 0 0 0-1 1v12a1 1 0 0 0 1 1zM4 4h14v10H4V4zM61 2H45a1 1 0 0 0-1 1v12a1 1 0 0 0 1 1h16a1 1 0 0 0 1-1V3a1 1 0 0 0-1-1zm-1 12H46V4h14v10z" fill="#000000" class="color000 svgShape"></path><path d="M9 10h4v2H9zM51 10h4v2h-4zM29 17h2v2h-2zM33 17h2v2h-2zM39 44H25a1 1 0 0 0-1 1v12a1 1 0 0 0 1 1h14a1 1 0 0 0 1-1V45a1 1 0 0 0-1-1zm-1 12H26V46h12v10zM23 40h2v2h-2zM27 40h2v2h-2zM31 40h2v2h-2zM35 40h2v2h-2zM39 40h2v2h-2zM51 40h4v2h-4zM9 40h5v2H9zM9 49h5v2H9z" fill="#000000" class="color000 svgShape"></path><path d="M28 48h8v2h-8zM48 24h2v3.184A2.996 2.996 0 0 0 48 30c0 1.654 1.346 3 3 3a2.98 2.98 0 0 0 2-.78c.532.48 1.229.78 2 .78s1.468-.301 2-.78c.532.48 1.229.78 2 .78 1.654 0 3-1.346 3-3a2.996 2.996 0 0 0-2-2.816V24h2v-2H48v2zm6 3.184a2.989 2.989 0 0 0-1 .596 2.972 2.972 0 0 0-1-.596V24h2v3.184zM51 31a1.001 1.001 0 0 1 0-2 1.001 1.001 0 0 1 0 2zm4 0a1.001 1.001 0 0 1 0-2 1.001 1.001 0 0 1 0 2zm4 0a1.001 1.001 0 0 1 0-2 1.001 1.001 0 0 1 0 2zm-1-3.816a2.989 2.989 0 0 0-1 .596 2.972 2.972 0 0 0-1-.596V24h2v3.184zM3.293 29.293a.999.999 0 0 0 0 1.414l3 3a.997.997 0 0 0 1.414 0L10 31.414l2.293 2.293a.997.997 0 0 0 1.414 0l3-3a.999.999 0 0 0 0-1.414L14 26.586V24h2v-2H4v2h2v2.586l-2.707 2.707zM7 31.586 5.414 30 7 28.414 8.586 30 7 31.586zm6 0L11.414 30 13 28.414 14.586 30 13 31.586zM12 24v2.586l-2 2-2-2V24h4zM21 23h22a1.001 1.001 0 0 0 .8-1.6l-6-8a1 1 0 0 0-.8-.4V3a1 1 0 0 0-1-1h-8a1 1 0 0 0-1 1v10a1 1 0 0 0-.8.4l-6 8A.999.999 0 0 0 21 23zm8-19h6v9h-6V4zm-1.5 11h9l4.5 6H23l4.5-6z" fill="#000000" class="color000 svgShape"></path></svg>