<?xml version="1.0" standalone="no"?>
<!DOCTYPE svg PUBLIC "-//W3C//DTD SVG 20010904//EN"
 "http://www.w3.org/TR/2001/REC-SVG-20010904/DTD/svg10.dtd">
<svg version="1.0" xmlns="http://www.w3.org/2000/svg"
 width="1350.000000pt" height="1350.000000pt" viewBox="0 0 1350.000000 1350.000000"
 preserveAspectRatio="xMidYMid meet">
<metadata>
Created by potrace 1.10, written by Peter Selinger 2001-2011
</metadata>
<g transform="translate(0.000000,1350.000000) scale(0.100000,-0.100000)"
fill="#ffc800" stroke="none">
<path d="M0 6750 l0 -6750 6750 0 6750 0 0 6750 0 6750 -6750 0 -6750 0 0
-6750z m2913 2535 c11 -33 25 -76 32 -95 7 -19 20 -62 29 -95 10 -33 22 -73
27 -90 17 -49 39 -128 48 -165 5 -19 13 -46 18 -60 6 -14 18 -52 28 -85 9 -33
23 -75 31 -93 8 -18 14 -41 14 -52 0 -11 6 -34 14 -52 7 -18 21 -60 31 -93 28
-98 47 -158 60 -195 7 -19 20 -62 30 -95 9 -33 23 -78 30 -100 6 -22 20 -67
30 -100 9 -33 23 -78 30 -100 6 -22 20 -67 30 -100 9 -33 22 -71 27 -85 6 -14
14 -41 18 -60 5 -19 13 -51 20 -70 27 -80 32 -97 40 -130 4 -19 13 -50 19 -67
6 -18 16 -48 22 -65 6 -18 14 -49 19 -68 4 -19 12 -46 18 -60 5 -14 18 -52 27
-85 10 -33 23 -78 30 -100 14 -46 41 -137 62 -210 8 -27 19 -63 24 -80 6 -16
17 -52 25 -80 8 -27 21 -70 28 -95 39 -127 48 -158 55 -190 4 -19 13 -45 19
-57 7 -12 12 -33 12 -46 0 -31 35 -76 48 -62 10 11 29 65 57 160 9 33 23 78
30 100 7 22 20 67 30 100 9 33 21 74 27 90 5 17 13 44 18 60 5 17 13 44 18 60
6 17 18 57 28 90 9 33 21 71 27 85 5 14 13 41 18 60 4 19 15 58 23 85 14 46
21 71 48 150 5 17 14 46 18 65 4 19 13 51 20 70 19 55 30 91 46 145 8 28 19
64 24 80 30 99 41 135 51 175 6 25 17 61 24 80 7 19 21 62 30 95 10 33 24 75
31 93 8 18 14 41 14 52 0 11 6 34 14 52 7 18 21 60 30 93 10 33 22 74 28 90
12 36 23 75 39 135 6 25 17 61 24 80 7 19 21 62 30 95 10 33 22 71 28 85 5 14
13 41 17 60 5 19 13 49 18 65 6 17 17 53 25 80 8 28 22 77 32 110 10 33 23 76
30 95 11 32 23 69 63 205 8 28 20 61 26 75 l12 25 419 3 c231 1 425 0 432 -2
8 -4 6 -20 -8 -58 -11 -29 -24 -64 -29 -78 -5 -14 -18 -50 -30 -80 -12 -30
-25 -66 -30 -80 -5 -14 -18 -50 -30 -80 -12 -30 -25 -66 -30 -80 -11 -32 -33
-90 -61 -160 -11 -30 -23 -66 -26 -80 -3 -14 -12 -34 -19 -45 -8 -11 -14 -29
-14 -40 0 -11 -7 -29 -15 -39 -8 -11 -15 -29 -15 -41 0 -12 -7 -30 -15 -41 -8
-10 -15 -28 -15 -39 0 -11 -6 -29 -14 -40 -7 -11 -16 -31 -19 -45 -3 -14 -15
-50 -27 -80 -12 -30 -25 -66 -30 -80 -5 -14 -18 -50 -30 -80 -12 -30 -25 -66
-30 -80 -5 -14 -18 -50 -30 -80 -12 -30 -25 -66 -30 -80 -5 -14 -18 -50 -30
-80 -12 -30 -26 -68 -30 -85 -8 -29 -18 -54 -60 -165 -12 -30 -25 -68 -30 -83
-5 -16 -13 -34 -18 -40 -5 -7 -12 -23 -15 -37 -5 -24 -13 -47 -58 -160 -11
-30 -23 -66 -26 -80 -3 -14 -12 -34 -19 -45 -8 -11 -14 -29 -14 -40 0 -12 -7
-30 -15 -41 -8 -10 -15 -28 -15 -40 0 -11 -7 -29 -15 -40 -8 -10 -15 -28 -15
-39 0 -11 -7 -29 -15 -39 -8 -11 -15 -29 -15 -41 0 -12 -7 -30 -15 -41 -8 -10
-15 -28 -15 -40 0 -11 -5 -25 -11 -31 -6 -6 -14 -26 -19 -44 -5 -19 -18 -59
-30 -89 -12 -30 -25 -66 -30 -80 -5 -14 -18 -50 -30 -80 -12 -30 -25 -66 -30
-80 -5 -14 -18 -50 -30 -80 -12 -30 -25 -66 -30 -80 -5 -14 -18 -50 -30 -80
-12 -30 -26 -68 -30 -85 -8 -29 -18 -54 -60 -165 -12 -30 -25 -66 -30 -80 -5
-14 -18 -50 -30 -80 -12 -30 -24 -66 -27 -80 -3 -14 -10 -30 -15 -37 -6 -7
-14 -27 -18 -45 -5 -18 -18 -58 -30 -88 -12 -30 -24 -64 -27 -75 -3 -11 -11
-33 -18 -50 -8 -16 -16 -38 -19 -47 -5 -17 -32 -18 -372 -18 -328 0 -369 2
-386 17 -10 9 -18 26 -18 38 0 11 -5 26 -11 32 -6 6 -14 26 -19 44 -5 19 -18
59 -30 89 -12 30 -25 66 -30 80 -5 14 -18 50 -30 80 -12 30 -25 69 -30 85 -5
17 -18 55 -30 85 -12 30 -25 66 -30 80 -5 14 -18 50 -30 80 -12 30 -25 66 -30
80 -5 14 -18 50 -30 80 -12 30 -26 69 -30 85 -15 53 -41 120 -51 129 -5 6 -9
17 -9 25 0 9 -7 29 -15 45 -8 15 -15 36 -15 45 0 9 -6 25 -14 36 -7 11 -16 31
-19 45 -3 14 -15 50 -27 80 -12 30 -24 66 -27 80 -3 14 -12 34 -19 45 -8 11
-14 29 -14 40 0 11 -7 29 -15 39 -8 11 -15 28 -15 37 0 10 -6 30 -14 46 -28
55 -46 104 -46 121 0 10 -6 26 -14 37 -7 11 -16 31 -19 45 -3 14 -15 50 -27
80 -12 30 -24 66 -27 80 -3 14 -12 34 -19 45 -8 11 -14 28 -14 38 0 10 -6 31
-14 45 -8 15 -22 47 -31 72 -9 25 -23 60 -31 78 -8 18 -14 41 -14 50 0 10 -7
27 -15 38 -8 10 -15 27 -15 36 0 10 -6 32 -14 50 -15 34 -38 95 -63 163 -8 22
-21 53 -29 68 -8 16 -14 36 -14 46 0 9 -6 25 -14 36 -7 11 -16 31 -19 45 -5
24 -10 38 -57 160 -12 30 -25 66 -30 80 -5 14 -18 50 -30 80 -12 30 -25 66
-30 80 -5 14 -18 50 -30 80 -12 30 -25 66 -30 80 -5 14 -18 50 -30 80 -12 30
-24 65 -27 77 -6 24 -33 51 -173 167 -52 44 -99 85 -105 91 -5 6 -46 41 -89
76 -44 35 -91 75 -105 88 -14 13 -48 42 -76 64 -81 65 -115 96 -115 107 0 7
217 9 686 8 l687 -3 20 -60z m3962 35 c8 -16 15 -37 15 -47 0 -10 6 -27 14
-38 7 -11 16 -31 19 -45 6 -32 27 -89 40 -115 6 -11 14 -33 18 -50 7 -29 15
-51 59 -165 12 -30 25 -66 30 -80 5 -14 18 -50 30 -80 12 -30 25 -68 30 -85 5
-16 18 -55 30 -85 12 -30 26 -68 30 -85 8 -29 18 -54 60 -165 12 -30 25 -66
30 -80 5 -14 18 -50 30 -80 12 -30 25 -68 30 -85 5 -16 18 -55 30 -85 45 -118
52 -136 57 -160 3 -14 10 -30 15 -37 6 -7 14 -27 18 -45 5 -18 15 -51 24 -73
8 -22 24 -65 36 -95 12 -30 32 -86 45 -125 13 -38 33 -95 45 -125 12 -30 25
-70 30 -88 4 -18 12 -38 18 -45 5 -7 12 -23 15 -37 5 -24 13 -47 58 -160 11
-30 23 -66 26 -80 3 -14 12 -34 19 -45 8 -11 14 -29 14 -40 0 -12 5 -26 11
-32 6 -6 14 -26 19 -44 5 -19 18 -59 30 -89 12 -30 26 -68 30 -85 9 -30 19
-59 60 -165 12 -30 26 -68 30 -85 25 -86 69 -198 81 -206 8 -5 490 -9 1116 -9
1061 0 1105 1 1184 20 45 10 87 24 93 30 5 5 17 10 26 10 24 0 151 88 193 133
70 77 187 268 187 306 0 6 6 25 14 43 28 65 70 236 81 323 3 28 10 73 15 100
11 65 12 435 0 500 -5 28 -14 83 -20 123 -5 41 -15 93 -21 115 -25 96 -42 154
-54 182 -7 17 -21 50 -31 75 -32 79 -112 206 -165 265 -84 91 -165 147 -274
187 -108 41 -113 41 -749 45 -350 2 -622 7 -625 12 -4 5 -5 187 -3 405 l2 396
707 0 c737 0 798 -3 934 -46 26 -8 54 -14 63 -14 31 0 217 -90 301 -145 139
-91 268 -215 376 -360 42 -55 78 -107 82 -115 4 -8 16 -28 26 -45 19 -30 81
-152 106 -210 44 -101 53 -123 84 -215 31 -89 70 -248 81 -330 4 -30 12 -77
18 -105 31 -140 43 -545 22 -743 -17 -160 -59 -401 -82 -467 -5 -16 -14 -46
-18 -65 -13 -58 -49 -156 -104 -282 -25 -59 -87 -182 -107 -213 -10 -16 -22
-37 -26 -45 -16 -36 -163 -221 -227 -288 -59 -61 -235 -202 -311 -249 -66 -40
-206 -98 -305 -126 -127 -36 -149 -41 -235 -50 -49 -5 -717 -11 -1482 -13
l-1392 -5 -17 38 c-9 21 -22 61 -30 88 -8 28 -19 64 -24 80 -4 17 -14 46 -21
65 -6 19 -17 51 -24 70 -7 19 -20 62 -30 95 -9 33 -23 76 -30 95 -7 19 -18 51
-25 70 -6 19 -16 51 -20 70 -4 19 -14 51 -20 70 -13 36 -29 80 -49 140 -7 19
-19 58 -27 85 -8 28 -19 64 -24 80 -8 29 -51 158 -72 220 -5 17 -13 44 -18 60
-5 17 -14 46 -21 65 -6 19 -17 51 -24 70 -7 19 -20 62 -30 95 -9 33 -23 75
-31 93 -8 18 -14 39 -14 47 0 8 -6 29 -14 47 -7 18 -21 60 -31 93 -9 33 -23
76 -30 95 -29 82 -37 107 -45 135 -5 17 -14 46 -20 65 -14 40 -29 88 -55 175
-10 33 -23 76 -30 95 -7 19 -18 51 -24 70 -7 19 -16 49 -21 65 -8 28 -15 50
-45 135 -22 62 -66 194 -75 225 -40 143 -89 226 -90 152 0 -12 -12 -53 -26
-92 -14 -38 -29 -83 -34 -100 -4 -16 -14 -46 -21 -65 -6 -19 -17 -51 -24 -70
-7 -19 -18 -51 -25 -70 -7 -19 -15 -48 -17 -65 -3 -16 -9 -35 -14 -40 -4 -6
-12 -29 -18 -50 -9 -38 -49 -162 -76 -235 -7 -19 -21 -62 -30 -95 -10 -33 -24
-75 -31 -93 -8 -18 -14 -41 -14 -52 0 -10 -4 -21 -9 -24 -5 -3 -12 -18 -15
-33 -9 -42 -67 -224 -82 -261 -8 -18 -14 -39 -14 -47 0 -8 -6 -29 -14 -47 -21
-51 -37 -99 -46 -138 -9 -39 -25 -87 -46 -138 -8 -18 -14 -46 -14 -62 l0 -30
404 0 c332 0 406 -2 415 -14 6 -7 18 -38 27 -67 26 -92 32 -113 45 -149 6 -19
17 -51 24 -70 7 -19 20 -62 30 -95 9 -33 24 -74 32 -92 8 -17 12 -36 9 -42 -5
-8 -179 -11 -581 -11 l-575 0 -16 -25 c-9 -13 -20 -39 -24 -57 -5 -18 -14 -49
-21 -68 -6 -19 -17 -51 -24 -70 -7 -19 -20 -62 -30 -95 -9 -33 -23 -75 -31
-93 -8 -18 -14 -39 -14 -47 0 -8 -6 -29 -14 -47 -8 -18 -24 -64 -36 -102 -36
-119 20 -106 -465 -106 -233 0 -426 4 -429 8 -5 8 5 41 44 142 12 30 26 69 30
85 12 41 33 97 44 114 5 7 12 27 16 45 5 17 18 56 30 86 12 30 25 66 30 80 9
26 24 65 60 160 12 30 30 82 41 115 11 33 27 72 35 87 8 14 14 34 14 45 0 10
7 27 15 37 8 11 15 28 15 38 0 16 20 69 43 113 6 11 14 33 18 50 4 16 17 55
29 85 12 30 25 66 30 80 5 14 18 50 30 80 12 30 25 66 30 80 5 14 18 50 30 80
12 30 25 66 30 80 5 14 18 50 30 80 12 30 25 66 30 80 5 14 18 50 30 80 12 30
24 64 27 75 3 11 11 34 18 50 37 87 45 107 45 120 0 7 6 26 14 42 8 15 22 48
31 73 36 95 48 126 60 160 14 38 34 92 59 158 9 23 23 60 31 82 8 22 22 58 30
80 8 22 21 57 29 78 8 20 20 55 29 77 8 22 21 58 30 80 8 22 23 60 32 85 9 25
23 61 30 80 46 128 76 203 91 232 8 14 14 33 14 42 0 8 6 30 14 48 13 31 25
61 63 163 15 39 24 60 57 138 9 21 16 44 16 52 0 7 6 26 14 42 27 54 46 104
46 121 0 9 7 26 15 36 8 11 15 27 15 36 0 8 7 26 16 38 15 22 15 22 344 22
l329 0 16 -30z m1900 -375 l0 -400 -380 0 -380 0 -3 390 c-1 214 0 396 3 403
3 10 85 12 382 10 l378 -3 0 -400z m-5630 -4270 c70 -18 107 -39 153 -86 64
-63 82 -110 82 -212 0 -88 -6 -108 -53 -178 -43 -64 -192 -129 -296 -129 -102
0 -237 60 -287 127 -48 65 -58 95 -57 183 0 99 18 143 86 210 56 57 99 77 222
104 25 5 86 -2 150 -19z m1809 9 c103 -23 176 -61 176 -89 0 -7 -11 -20 -26
-29 -24 -17 -27 -16 -88 13 -57 28 -71 31 -162 31 -84 0 -105 -4 -139 -23 -32
-18 -41 -29 -43 -56 -6 -65 42 -83 248 -97 143 -9 211 -37 244 -101 51 -100
-26 -212 -170 -246 -91 -21 -111 -21 -220 2 -100 21 -161 48 -198 88 -30 32
-26 39 31 46 31 4 49 0 65 -12 56 -42 93 -51 213 -51 102 0 122 3 151 21 40
24 54 47 54 87 0 61 -66 89 -236 98 -111 6 -184 23 -220 53 -58 48 -69 108
-30 169 31 49 66 73 141 93 78 22 122 23 209 3z m5203 -4 c85 -26 112 -42 161
-91 60 -60 82 -115 82 -208 0 -105 -35 -174 -120 -236 -128 -94 -314 -98 -446
-9 -94 63 -126 126 -126 244 0 101 17 143 84 212 52 53 75 66 153 89 79 23
136 23 212 -1z m-7907 -4 c31 -7 81 -26 113 -41 65 -32 75 -61 32 -89 -24 -16
-27 -16 -56 5 -42 30 -141 59 -199 59 -27 0 -73 -10 -104 -21 -55 -21 -126
-75 -126 -96 0 -6 -7 -16 -15 -23 -11 -9 -15 -33 -15 -89 0 -75 1 -77 41 -124
59 -69 127 -97 234 -97 89 0 149 19 194 61 22 21 24 21 57 6 41 -20 43 -36 7
-68 -43 -37 -71 -50 -153 -70 -92 -23 -116 -23 -199 -3 -129 31 -205 85 -249
175 -28 58 -30 170 -5 226 70 154 257 234 443 189z m6230 0 c68 -14 94 -26
148 -64 38 -28 41 -48 7 -64 -21 -9 -35 -6 -99 26 -66 32 -84 36 -149 36 -145
0 -246 -63 -281 -173 -18 -57 -18 -58 4 -118 41 -109 144 -164 293 -157 65 3
93 9 137 32 30 15 58 33 62 39 10 16 62 -15 67 -39 7 -34 -77 -79 -202 -108
-76 -18 -82 -18 -165 -1 -161 33 -250 106 -280 227 -16 62 -15 89 3 153 48
164 246 256 455 211z m3512 -1 c76 -17 148 -51 148 -68 0 -7 -9 -21 -21 -30
-20 -17 -23 -17 -91 8 -57 20 -90 25 -165 25 -83 0 -98 -3 -133 -25 -31 -20
-40 -31 -40 -53 0 -62 60 -82 280 -97 90 -7 135 -21 181 -57 23 -19 49 -73 49
-103 0 -57 -44 -126 -100 -155 -36 -20 -137 -39 -200 -40 -66 0 -198 24 -213
39 -6 6 -18 11 -27 11 -8 1 -28 12 -45 25 l-29 24 24 26 c28 30 37 31 70 8 51
-36 121 -53 217 -53 136 0 213 38 213 105 0 65 -66 96 -215 102 -190 8 -276
51 -292 146 -10 64 50 133 139 162 58 18 173 18 250 0z m-5984 -33 c5 -33 -29
-43 -136 -42 -53 1 -103 1 -109 1 -10 -1 -13 -61 -15 -248 l-3 -247 -30 -8
c-56 -15 -55 -19 -55 251 l0 250 -122 3 -123 3 -3 32 -3 33 278 2 c153 2 287
0 298 -3 11 -3 21 -16 23 -27z m1242 -187 c5 -241 8 -251 67 -279 25 -12 64
-16 155 -16 104 0 125 3 153 20 18 11 37 28 41 38 4 9 10 116 13 237 l6 220
35 0 35 0 3 -225 c3 -251 -2 -278 -62 -324 -55 -42 -235 -59 -362 -35 -80 16
-135 60 -152 123 -17 65 -17 452 1 460 6 2 23 4 37 3 l25 -2 5 -220z m2221
215 c23 -13 25 -46 3 -58 -9 -5 -56 -7 -104 -4 -49 2 -100 2 -114 -2 l-26 -6
-2 -253 -3 -252 -37 -3 c-21 -2 -39 -2 -40 0 -1 2 -5 118 -8 258 l-5 255 -108
-3 c-112 -3 -137 4 -137 37 0 39 15 41 293 41 166 0 276 -4 288 -10z m1798 0
c17 -9 18 -31 20 -284 2 -205 -1 -276 -10 -282 -7 -4 -30 -6 -51 -6 -39 2 -46
7 -108 78 -13 16 -69 78 -125 138 -164 178 -175 191 -175 199 0 4 -9 7 -20 7
-19 0 -20 -7 -20 -204 0 -219 -3 -231 -52 -224 l-23 3 -3 288 -2 287 38 0 c36
0 45 -7 128 -97 49 -54 121 -131 160 -173 38 -41 81 -88 95 -104 40 -48 72
-75 81 -69 5 3 7 101 5 219 -2 139 0 217 7 224 13 13 32 13 55 0z m-7398 -112
c57 -61 138 -147 179 -191 41 -44 84 -92 95 -108 11 -16 27 -29 36 -29 14 0
16 23 14 208 -1 114 0 213 3 220 2 7 21 12 43 12 l39 0 0 -285 0 -285 -44 0
c-42 0 -47 4 -122 84 -193 205 -280 300 -299 327 -41 58 -44 43 -47 -193 l-3
-223 -40 0 -40 0 -3 275 c-1 151 0 280 3 287 2 8 21 13 43 13 37 0 45 -6 143
-112z m2921 92 c54 -31 73 -73 73 -160 0 -67 -3 -79 -28 -112 -15 -20 -38 -39
-51 -42 -45 -11 -39 -35 33 -131 38 -51 67 -96 64 -99 -4 -3 -25 -6 -48 -6
-41 0 -41 0 -105 98 -35 53 -69 100 -75 104 -5 5 -75 7 -155 5 l-145 -2 -3
-103 c-3 -112 -10 -125 -58 -104 l-24 12 0 273 c0 151 3 277 7 280 3 4 113 7
244 7 218 0 241 -2 271 -20z"/>
<path d="M2911 4588 c-70 -32 -125 -96 -140 -162 -23 -103 18 -185 122 -244
32 -19 54 -22 138 -22 115 0 154 14 218 80 44 46 57 96 45 186 -5 46 -13 61
-49 99 -62 63 -117 85 -212 84 -56 0 -91 -6 -122 -21z"/>
<path d="M9925 4592 c-81 -46 -121 -97 -131 -170 -10 -80 2 -134 41 -180 57
-66 103 -84 215 -84 114 1 157 18 220 89 42 48 47 69 41 173 -4 72 -49 128
-138 174 -45 23 -206 22 -248 -2z"/>
<path d="M6354 4587 c-3 -8 -4 -54 -2 -103 l3 -89 155 -3 c206 -4 236 1 261
41 34 57 17 131 -36 155 -39 18 -374 17 -381 -1z"/>
</g>
</svg>
