<svg class="svg-icon" style="width: 1em; height: 1em;vertical-align: middle;fill: currentColor;overflow: hidden;" viewBox="0 0 1024 1024" version="1.1" xmlns="http://www.w3.org/2000/svg"><path d="M111.957333 718.506667c0 11.349333 4.48 22.186667 12.501334 30.165333l150.869333 150.869333a42.538667 42.538667 0 0 0 60.330667 0l161.92-161.92a319.786667 319.786667 0 0 0 94.592 14.208 317.696 317.696 0 0 0 226.218666-93.653333 319.317333 319.317333 0 0 0 69.632-348.074667 42.624 42.624 0 0 0-69.632-13.952l-135.808 135.765334-90.496-90.538667 135.765334-135.765333a42.666667 42.666667 0 0 0-13.994667-69.632 318.677333 318.677333 0 0 0-121.856-24.021334c-85.461333 0-165.802667 33.28-226.176 93.696a319.061333 319.061333 0 0 0-79.445333 320.810667l-161.92 161.877333a42.496 42.496 0 0 0-12.501334 30.165334z m253.866667-150.826667a42.666667 42.666667 0 0 0 9.301333-46.378667 234.069333 234.069333 0 0 1 51.029334-255.274666 235.392 235.392 0 0 1 188.288-67.626667l-112.896 112.896a42.624 42.624 0 0 0 0 60.330667l150.826666 150.869333a42.538667 42.538667 0 0 0 60.330667 0l112.981333-112.981333a234.24 234.24 0 0 1-67.712 188.416c-66.133333 66.133333-169.130667 86.485333-255.317333 51.029333a42.752 42.752 0 0 0-46.378667 9.301333L305.493333 809.045333 214.954667 718.506667l150.869333-150.826667z" fill="" /></svg>